<mxfile host="app.diagrams.net" modified="2023-12-06T17:01:22.270Z" agent="Mozilla/5.0 (Windows NT 10.0; Win64; x64) AppleWebKit/537.36 (KHTML, like Gecko) Chrome/119.0.0.0 Safari/537.36" etag="4H6gGKNxEB08rnJmGi9l" version="22.1.7" type="github">
  <diagram name="Seite-1" id="MbRMPzawZWTjacwESfoU">
    <mxGraphModel dx="794" dy="456" grid="1" gridSize="10" guides="1" tooltips="1" connect="1" arrows="1" fold="1" page="1" pageScale="1" pageWidth="1169" pageHeight="827" math="0" shadow="0">
      <root>
        <mxCell id="0" />
        <mxCell id="1" parent="0" />
        <mxCell id="FSHwLZ9u9-6Pu8mQxcXH-16" style="edgeStyle=orthogonalEdgeStyle;rounded=0;orthogonalLoop=1;jettySize=auto;html=1;exitX=1;exitY=0.75;exitDx=0;exitDy=0;entryX=0.25;entryY=0;entryDx=0;entryDy=0;" edge="1" parent="1" source="FSHwLZ9u9-6Pu8mQxcXH-12" target="FSHwLZ9u9-6Pu8mQxcXH-13">
          <mxGeometry relative="1" as="geometry" />
        </mxCell>
        <mxCell id="FSHwLZ9u9-6Pu8mQxcXH-17" value="liefert_Auftrag" style="edgeLabel;html=1;align=center;verticalAlign=middle;resizable=0;points=[];" vertex="1" connectable="0" parent="FSHwLZ9u9-6Pu8mQxcXH-16">
          <mxGeometry x="0.6473" relative="1" as="geometry">
            <mxPoint y="1" as="offset" />
          </mxGeometry>
        </mxCell>
        <mxCell id="FSHwLZ9u9-6Pu8mQxcXH-32" style="edgeStyle=orthogonalEdgeStyle;rounded=0;orthogonalLoop=1;jettySize=auto;html=1;exitX=0;exitY=1;exitDx=0;exitDy=0;entryX=0;entryY=0;entryDx=0;entryDy=0;" edge="1" parent="1" source="FSHwLZ9u9-6Pu8mQxcXH-12" target="FSHwLZ9u9-6Pu8mQxcXH-29">
          <mxGeometry relative="1" as="geometry" />
        </mxCell>
        <mxCell id="FSHwLZ9u9-6Pu8mQxcXH-33" value="zeigt an" style="edgeLabel;html=1;align=center;verticalAlign=middle;resizable=0;points=[];" vertex="1" connectable="0" parent="FSHwLZ9u9-6Pu8mQxcXH-32">
          <mxGeometry x="0.3173" y="1" relative="1" as="geometry">
            <mxPoint as="offset" />
          </mxGeometry>
        </mxCell>
        <mxCell id="FSHwLZ9u9-6Pu8mQxcXH-40" style="edgeStyle=orthogonalEdgeStyle;rounded=0;orthogonalLoop=1;jettySize=auto;html=1;exitX=0.5;exitY=0;exitDx=0;exitDy=0;entryX=0.5;entryY=1;entryDx=0;entryDy=0;" edge="1" parent="1" source="FSHwLZ9u9-6Pu8mQxcXH-12" target="FSHwLZ9u9-6Pu8mQxcXH-38">
          <mxGeometry relative="1" as="geometry">
            <Array as="points">
              <mxPoint x="360" y="10" />
              <mxPoint x="870" y="10" />
            </Array>
          </mxGeometry>
        </mxCell>
        <mxCell id="FSHwLZ9u9-6Pu8mQxcXH-12" value="&amp;lt;boundary&amp;gt;&lt;br&gt;EingabeseiteProjektausschreibung" style="html=1;whiteSpace=wrap;" vertex="1" parent="1">
          <mxGeometry x="220" y="30" width="280" height="50" as="geometry" />
        </mxCell>
        <mxCell id="FSHwLZ9u9-6Pu8mQxcXH-14" style="edgeStyle=orthogonalEdgeStyle;rounded=0;orthogonalLoop=1;jettySize=auto;html=1;exitX=0.5;exitY=0;exitDx=0;exitDy=0;entryX=1;entryY=0.5;entryDx=0;entryDy=0;" edge="1" parent="1" source="FSHwLZ9u9-6Pu8mQxcXH-13" target="FSHwLZ9u9-6Pu8mQxcXH-12">
          <mxGeometry relative="1" as="geometry" />
        </mxCell>
        <mxCell id="FSHwLZ9u9-6Pu8mQxcXH-15" value="initiiert / kontrolliert" style="edgeLabel;html=1;align=center;verticalAlign=middle;resizable=0;points=[];" vertex="1" connectable="0" parent="FSHwLZ9u9-6Pu8mQxcXH-14">
          <mxGeometry x="-0.327" y="-3" relative="1" as="geometry">
            <mxPoint x="-3" y="16" as="offset" />
          </mxGeometry>
        </mxCell>
        <mxCell id="FSHwLZ9u9-6Pu8mQxcXH-21" style="edgeStyle=orthogonalEdgeStyle;rounded=0;orthogonalLoop=1;jettySize=auto;html=1;exitX=0;exitY=0.5;exitDx=0;exitDy=0;entryX=1;entryY=0.5;entryDx=0;entryDy=0;" edge="1" parent="1" source="FSHwLZ9u9-6Pu8mQxcXH-13" target="FSHwLZ9u9-6Pu8mQxcXH-20">
          <mxGeometry relative="1" as="geometry" />
        </mxCell>
        <mxCell id="FSHwLZ9u9-6Pu8mQxcXH-22" value="liest_aus" style="edgeLabel;html=1;align=center;verticalAlign=middle;resizable=0;points=[];" vertex="1" connectable="0" parent="FSHwLZ9u9-6Pu8mQxcXH-21">
          <mxGeometry x="0.15" y="1" relative="1" as="geometry">
            <mxPoint as="offset" />
          </mxGeometry>
        </mxCell>
        <mxCell id="FSHwLZ9u9-6Pu8mQxcXH-27" style="edgeStyle=orthogonalEdgeStyle;rounded=0;orthogonalLoop=1;jettySize=auto;html=1;exitX=0.5;exitY=1;exitDx=0;exitDy=0;entryX=0.5;entryY=0;entryDx=0;entryDy=0;" edge="1" parent="1" source="FSHwLZ9u9-6Pu8mQxcXH-13" target="FSHwLZ9u9-6Pu8mQxcXH-25">
          <mxGeometry relative="1" as="geometry" />
        </mxCell>
        <mxCell id="FSHwLZ9u9-6Pu8mQxcXH-28" value="erzeugt" style="edgeLabel;html=1;align=center;verticalAlign=middle;resizable=0;points=[];" vertex="1" connectable="0" parent="FSHwLZ9u9-6Pu8mQxcXH-27">
          <mxGeometry x="-0.181" y="3" relative="1" as="geometry">
            <mxPoint as="offset" />
          </mxGeometry>
        </mxCell>
        <mxCell id="FSHwLZ9u9-6Pu8mQxcXH-30" style="edgeStyle=orthogonalEdgeStyle;rounded=0;orthogonalLoop=1;jettySize=auto;html=1;exitX=0.25;exitY=1;exitDx=0;exitDy=0;entryX=0.75;entryY=0;entryDx=0;entryDy=0;" edge="1" parent="1" source="FSHwLZ9u9-6Pu8mQxcXH-13" target="FSHwLZ9u9-6Pu8mQxcXH-29">
          <mxGeometry relative="1" as="geometry" />
        </mxCell>
        <mxCell id="FSHwLZ9u9-6Pu8mQxcXH-31" value="erzeugt" style="edgeLabel;html=1;align=center;verticalAlign=middle;resizable=0;points=[];" vertex="1" connectable="0" parent="FSHwLZ9u9-6Pu8mQxcXH-30">
          <mxGeometry x="0.225" y="2" relative="1" as="geometry">
            <mxPoint as="offset" />
          </mxGeometry>
        </mxCell>
        <mxCell id="FSHwLZ9u9-6Pu8mQxcXH-13" value="&amp;lt;control&amp;gt;&lt;br&gt;ProjektausschreibungAufgabe" style="html=1;whiteSpace=wrap;" vertex="1" parent="1">
          <mxGeometry x="520" y="200" width="280" height="50" as="geometry" />
        </mxCell>
        <mxCell id="FSHwLZ9u9-6Pu8mQxcXH-20" value="&amp;lt;dto&amp;gt;&lt;br&gt;Auftrag" style="html=1;whiteSpace=wrap;" vertex="1" parent="1">
          <mxGeometry x="280" y="200" width="120" height="50" as="geometry" />
        </mxCell>
        <mxCell id="FSHwLZ9u9-6Pu8mQxcXH-23" style="edgeStyle=orthogonalEdgeStyle;rounded=0;orthogonalLoop=1;jettySize=auto;html=1;exitX=0.25;exitY=1;exitDx=0;exitDy=0;entryX=0.578;entryY=-0.02;entryDx=0;entryDy=0;entryPerimeter=0;" edge="1" parent="1" source="FSHwLZ9u9-6Pu8mQxcXH-12" target="FSHwLZ9u9-6Pu8mQxcXH-20">
          <mxGeometry relative="1" as="geometry" />
        </mxCell>
        <mxCell id="FSHwLZ9u9-6Pu8mQxcXH-24" value="erzeugt" style="edgeLabel;html=1;align=center;verticalAlign=middle;resizable=0;points=[];" vertex="1" connectable="0" parent="FSHwLZ9u9-6Pu8mQxcXH-23">
          <mxGeometry x="0.0146" y="-3" relative="1" as="geometry">
            <mxPoint x="1" y="-2" as="offset" />
          </mxGeometry>
        </mxCell>
        <mxCell id="FSHwLZ9u9-6Pu8mQxcXH-25" value="&amp;lt;entity&amp;gt;&lt;br&gt;Projektausschreibung" style="html=1;whiteSpace=wrap;" vertex="1" parent="1">
          <mxGeometry x="520" y="320" width="280" height="50" as="geometry" />
        </mxCell>
        <mxCell id="FSHwLZ9u9-6Pu8mQxcXH-29" value="&amp;lt;dto&amp;gt;&lt;br&gt;Bestätigung" style="html=1;whiteSpace=wrap;" vertex="1" parent="1">
          <mxGeometry x="210" y="320" width="280" height="50" as="geometry" />
        </mxCell>
        <mxCell id="FSHwLZ9u9-6Pu8mQxcXH-37" style="edgeStyle=orthogonalEdgeStyle;rounded=0;orthogonalLoop=1;jettySize=auto;html=1;entryX=0;entryY=0.75;entryDx=0;entryDy=0;endArrow=none;endFill=0;" edge="1" parent="1" source="FSHwLZ9u9-6Pu8mQxcXH-35" target="FSHwLZ9u9-6Pu8mQxcXH-12">
          <mxGeometry relative="1" as="geometry" />
        </mxCell>
        <mxCell id="FSHwLZ9u9-6Pu8mQxcXH-35" value="Unternehmer" style="shape=umlActor;verticalLabelPosition=bottom;verticalAlign=top;html=1;" vertex="1" parent="1">
          <mxGeometry x="120" y="30" width="30" height="60" as="geometry" />
        </mxCell>
        <mxCell id="FSHwLZ9u9-6Pu8mQxcXH-38" value="SubBoundaries&lt;br&gt;möglich aber nicht für Modell" style="html=1;whiteSpace=wrap;" vertex="1" parent="1">
          <mxGeometry x="730" y="30" width="280" height="50" as="geometry" />
        </mxCell>
      </root>
    </mxGraphModel>
  </diagram>
</mxfile>
